<svg xmlns="http://www.w3.org/2000/svg" version="1.0" viewBox="0 0 1024 1024"><path d="M619.8 200.5c-41.2 5.7-78.5 18.7-139.1 48.7-43.2 21.4-60.9 28.6-87.2 35.3-17.6 4.5-29 5.9-48.5 5.9-18.9.1-29.5-1.7-40-6.5-10.8-5-16.7-10.8-19-18.8-.8-2.8-.5-3.9 2.6-8.7 8-12.5 8.5-23 1.7-32.2-8.8-11.8-34.4-10.6-47.6 2.3-9.7 9.5-13.7 22.3-11.7 38 2 15.6 8 28.1 19.4 40.2 18 19.2 47 30.6 86.9 34.4 12.3 1.1 49.3.7 64.8-.7 5.9-.6 6.8-.4 9.3 1.8 1.8 1.5 3.1 3.9 3.7 6.8 1.1 5.9 1.1 64.4-.1 128-.5 27.8-1.4 83.3-2 123.5-.6 40.1-1.3 77.7-1.6 83.3-.6 9.6-.8 10.6-3.4 13.5l-2.8 3.2-13.9.6c-7.6.3-15 1-16.4 1.6-4.5 2-8.7 6.3-10.5 10.9-3.5 9.3 1.7 20.8 16 34.9 25.6 25.2 77.3 53.7 136 74.9 32.9 11.9 59.6 18 78.6 18 22.3 0 37.1-6.4 46.8-20.2 5.8-8.3 8.3-15.3 8.9-24.8.7-10.2-.9-17.5-4.9-22-2.7-3-3.5-3.4-8.2-3.4-5.3 0-7.5 1-21 9.3-9.5 5.9-15.9 7.9-26.6 8.4-19.7 1-33.8-5-54-23.2-4.7-4.2-14.1-11.3-21-15.9s-13.4-9.3-14.5-10.5c-1.7-2-2-4.4-2.6-26.4-.3-13.3-.4-66.6 0-118.4l.6-94.2 2.8-2.9c1.6-1.7 4-3.2 5.3-3.5 1.3-.2 10.7 1.3 20.9 3.4 26.6 5.4 39.8 6.9 61.4 6.9 43.1 0 75.3-8.5 108.4-28.6 48.7-29.7 77.5-73.8 83.8-128.4 1.5-13.2.7-38.7-1.6-49.5-7.2-34.3-26.7-61-57.5-78.7-12.5-7.2-33-13.7-51-16.3-12.8-1.8-37.9-1.8-51.2 0m38.2 63c17.8 6.5 30.3 19.2 36.5 37.2 6.4 18.4 6 43.8-1 64.3-14 41.1-54.8 78.7-96.3 88.7-8.4 2-27.2 2.2-36.5.4-7.4-1.5-12.3-4.5-11.2-7.1.3-.8 4-3.5 8.2-6 16.4-9.7 27.3-24.8 28.1-39 .9-15.6-8.4-23.8-25.7-22.8-17.5 1.1-37.9 14.7-54.1 36.2-2.3 3.1-4.7 5.6-5.2 5.6-.7 0-.9-14.4-.6-42.8.5-47.3.3-46.2 7.2-51.9 1.9-1.5 11.5-7.5 21.3-13.2s25.5-15.1 34.8-20.9c33.8-21 46.4-27.2 62-30.6 10.3-2.3 23.1-1.5 32.5 1.9"/></svg>