<?xml version="1.0" encoding="UTF-8"?>
<svg version="1.1" xmlns="http://www.w3.org/2000/svg" width="180" height="180">
<path d="M0 0 C59.4 0 118.8 0 180 0 C180 59.4 180 118.8 180 180 C120.6 180 61.2 180 0 180 C0 120.6 0 61.2 0 0 Z " fill="#221F19" transform="translate(0,0)"/>
<path d="M0 0 C0.928125 0.556875 1.85625 1.11375 2.8125 1.6875 C7.17328946 6.29747743 9.21817546 11.60699622 9.4375 17.9375 C8.97950036 26.90318999 6.59045406 33.4912863 0.31640625 40.01953125 C-7.59810503 46.7862382 -15.91109176 48.18187063 -26.0625 48.125 C-27.10374023 48.13080078 -27.10374023 48.13080078 -28.16601562 48.13671875 C-31.99440922 48.12944735 -35.20489609 47.75902078 -39 47 C-39 60.86 -39 74.72 -39 89 C-37.35 89.66 -35.7 90.32 -34 91 C-33.071875 91.86625 -32.14375 92.7325 -31.1875 93.625 C-26.92876905 96.79817208 -25.2088535 96.5787615 -20 96 C-17.11785113 95.11785113 -17.11785113 95.11785113 -15 94 C-13 96 -13 96 -12.625 99.375 C-13 103 -13 103 -14.375 105.4375 C-19.19018337 108.30368058 -23.67057839 107.80992427 -29.02929688 106.50634766 C-39.09580575 103.71331497 -48.35269079 99.94924081 -57 94 C-57.75410156 93.48308594 -58.50820312 92.96617187 -59.28515625 92.43359375 C-62.58689837 89.91954358 -63.86340733 88.90492641 -64.5 84.6875 C-64 82 -64 82 -63 81 C-59.535 80.505 -59.535 80.505 -56 80 C-55.67 60.53 -55.34 41.06 -55 21 C-60.94 21 -66.88 21 -73 21 C-85 15 -85 15 -87 9 C-87.56 2.84 -87.56 2.84 -85.375 -0.4375 C-82.33458305 -2.43777431 -80.5772533 -2.45667063 -77 -2 C-76.01 -1.34 -75.02 -0.68 -74 0 C-74.33 2.97 -74.66 5.94 -75 9 C-62.20987947 12.19753013 -51.73326596 7.27021774 -40.1875 1.875 C-38.12634079 0.91378633 -36.06398075 -0.04485997 -34 -1 C-33.2575 -1.34546875 -32.515 -1.6909375 -31.75 -2.046875 C-21.9076193 -5.99873998 -8.99560391 -5.73719627 0 0 Z " fill="#EBE8E3" transform="translate(128,40)"/>
<path d="M0 0 C3.40850414 2.12084702 5.81386655 4.1181087 7 8 C7.89600157 14.49601138 6.33862364 18.26615162 2.78515625 23.7265625 C-0.6033516 28.04190511 -4.52354754 30.9639144 -10 32 C-12.33300933 32.03888349 -14.66709801 32.0448635 -17 32 C-17 31.34 -17 30.68 -17 30 C-16.34 29.608125 -15.68 29.21625 -15 28.8125 C-12.57398486 27.03516815 -12.57398486 27.03516815 -12.75 23.3125 C-12.8325 22.219375 -12.915 21.12625 -13 20 C-16.3324787 19.66582071 -16.3324787 19.66582071 -20 20 C-22.31377147 21.89584109 -22.31377147 21.89584109 -24 24 C-24.66 24 -25.32 24 -26 24 C-26.61331781 19.8498828 -26.83318543 16.12970168 -26 12 C-23.15964897 8.75886324 -19.78469018 6.98749093 -16 5 C-15.20078125 4.4946875 -14.4015625 3.989375 -13.578125 3.46875 C-8.99018024 0.62106015 -5.52955291 -0.957038 0 0 Z " fill="#28251F" transform="translate(115,48)"/>
</svg>
